<svg width="31" height="31" viewBox="0 0 31 31" fill="none" xmlns="http://www.w3.org/2000/svg">
<path d="M27.9214 3.07818C25.9367 1.09342 23.2969 1.70651e-07 20.4899 1.70651e-07C17.6825 -0.000498805 15.0432 1.09325 13.0578 3.07867C11.5065 4.62999 10.4994 6.58131 10.1338 8.70096C10.0966 8.91502 10.0663 9.13041 10.0432 9.34763C10.0195 9.56086 10.0027 9.77625 9.99243 9.99248C9.98379 10.1643 9.97963 10.3371 9.97963 10.5104L9.98013 11.9393V12.5823L9.97963 13.2258L9.97913 21.0207L17.775 21.0202H18.418H19.061C19.0718 20.8452 19.0773 20.6682 19.0778 20.4901V19.078L18.4361 19.0775H11.9223L11.9228 13.2054V11.9228L11.9223 10.5102C11.9228 10.3319 11.9283 10.1551 11.9391 9.98017C11.9523 9.76378 11.9735 9.55022 12.003 9.33849C12.0324 9.12127 12.0705 8.90721 12.1169 8.6968C12.4697 7.06066 13.2923 5.59784 14.4346 4.45552C15.986 2.90403 18.1277 1.94318 20.4899 1.94284C25.2138 1.94334 29.0569 5.78645 29.0574 10.5104C29.0569 12.8726 28.0961 15.0143 26.5448 16.5656C25.4025 17.708 23.9395 18.5306 22.3035 18.8834V19.061L22.303 20.4899C22.303 20.616 22.3012 20.7421 22.2975 20.8663C24.4171 20.5009 26.3696 19.4941 27.9214 17.9423C29.9069 15.9571 31.0001 13.3173 31.0001 10.5102C31.0001 7.70334 29.9069 5.0636 27.9214 3.07818Z" fill="white"/>
<path d="M11.9229 11.9229H12.564H13.2052L19.0773 11.9226L19.0778 17.7955V18.4367V19.0779V20.49C19.0773 20.6681 19.0718 20.8451 19.061 21.02C19.0479 21.2364 19.0269 21.4503 18.9972 21.6617C18.9681 21.8784 18.9305 22.092 18.8842 22.3026C18.5306 23.9387 17.708 25.4025 16.5656 26.5449C15.0143 28.0962 12.8724 29.057 10.5104 29.0575C5.78662 29.057 1.94335 25.2139 1.94285 20.49C1.94335 18.1278 2.90421 15.986 4.45552 14.4347C5.59784 13.2924 7.06117 12.4703 8.69731 12.1165V10.5103C8.69731 10.3832 8.69913 10.2571 8.70312 10.1334C6.58364 10.498 4.63099 11.5056 3.07868 13.0577C1.09326 15.0431 -0.000498805 17.6824 1.7065e-07 20.4898C1.7065e-07 23.2969 1.09342 25.9366 3.07818 27.9214C5.06344 29.9066 7.70319 31 10.5103 31C13.3173 31 15.9571 29.9066 17.9423 27.9214C19.8047 26.0589 20.8823 23.6202 21.0079 21.0076C21.0119 20.9237 21.0152 20.8399 21.0173 20.7559C21.0183 20.7105 21.0192 20.6653 21.0197 20.6194C21.0202 20.5763 21.0205 20.5332 21.0205 20.4896L21.0202 20.4891V19.0607L21.0205 9.97888L13.2248 9.97938L12.5823 9.97971H11.9393C11.9285 10.1547 11.923 10.3315 11.9225 10.5098L11.9229 11.9229Z" fill="#7A73FE"/>
</svg>
